<svg width="80" height="80" viewBox="0 0 80 80" fill="none" xmlns="http://www.w3.org/2000/svg">
<g clip-path="url(#clip0_1_3222)">
<path d="M40 2.5C57.8823 2.5 72.7051 15.5989 75.397 32.725C75.4589 33.1186 75.655 33.4791 75.9414 33.7561C78.4435 36.1766 80 39.5732 80 43.3333C80 50.6971 74.0305 56.6667 66.6667 56.6667H65C64.0795 56.6667 63.3333 55.9205 63.3333 55V31.6667C63.3333 30.7462 64.0795 30 65 30H66.6667C66.7863 30 66.9056 30.0016 67.0244 30.0047C68.2867 30.038 69.3851 28.887 68.9499 27.7017C64.6222 15.9127 53.2936 7.5 40 7.5C26.7095 7.5 15.383 15.9089 11.0505 27.6966C10.6142 28.8838 11.7169 30.0374 12.9814 30.0046C13.0983 30.0015 13.2157 30 13.3333 30H15C15.9205 30 16.6667 30.7462 16.6667 31.6667V55C16.6667 55.9205 15.9205 56.6667 15 56.6667H13.3333C5.96954 56.6667 0 50.6971 0 43.3333C0 39.5728 1.55679 36.1759 4.06104 33.752C4.34713 33.475 4.54305 33.1146 4.60484 32.7213C7.29475 15.599 22.1177 2.5 40 2.5Z" fill="white" style="fill:white;fill-opacity:1;"/>
<path fill-rule="evenodd" clip-rule="evenodd" d="M52.331 10.8261C52.9619 10.3938 53.8131 10.2593 54.3651 10.7886C55.9914 12.3479 56.8448 14.95 56.9251 18.595C56.9362 19.0975 57.158 19.5736 57.5364 19.9044C63.1309 24.7965 66.6666 31.9853 66.6666 40V50C66.6666 64.7276 54.7276 76.6667 40 76.6667C25.2724 76.6667 13.3333 64.7276 13.3333 50V40C13.3333 25.2724 25.2724 13.3333 40 13.3333C45.7818 13.3333 49.8921 12.4976 52.331 10.8261Z" fill="url(#paint0_radial_1_3222)" style=""/>
<mask id="mask0_1_3222" style="mask-type:alpha" maskUnits="userSpaceOnUse" x="26" y="51" width="28" height="18">
<path d="M53.3334 55C53.3334 62.3638 47.3638 68.3334 40.0001 68.3334C32.6363 68.3334 26.6666 62.3638 26.6666 55V53.2776C26.6665 52.3571 27.4128 51.6108 28.3333 51.6108C28.5297 51.6108 28.7246 51.6455 28.909 51.7134C29.3525 51.8766 29.7352 52.0073 30.0568 52.1054C32.675 52.9038 35.454 53.3334 38.3334 53.3334H41.6667C44.5797 53.3334 47.39 52.8937 50.035 52.0773C50.3331 51.9852 50.6851 51.8645 51.091 51.7151C51.9549 51.3972 52.9128 51.8397 53.2308 52.7035C53.2987 52.8878 53.3334 53.0827 53.3334 53.2792V55Z" fill="white" style="fill:white;fill-opacity:1;"/>
</mask>
<g mask="url(#mask0_1_3222)">
<path opacity="0.95" d="M53.3334 55C53.3334 62.3638 47.3638 68.3334 40.0001 68.3334C32.6363 68.3334 26.6666 62.3638 26.6666 55V53.2776C26.6665 52.3571 27.4128 51.6108 28.3333 51.6108C28.5297 51.6108 28.7246 51.6455 28.909 51.7134C29.3525 51.8766 29.7352 52.0073 30.0568 52.1054C32.675 52.9038 35.454 53.3334 38.3334 53.3334H41.6667C44.5797 53.3334 47.39 52.8937 50.035 52.0773C50.3331 51.9852 50.6851 51.8645 51.091 51.7151C51.9549 51.3972 52.9128 51.8397 53.2308 52.7035C53.2987 52.8878 53.3334 53.0827 53.3334 53.2792V55Z" fill="#21242C" style="fill:#21242C;fill:color(display-p3 0.1294 0.1412 0.1725);fill-opacity:1;"/>
<path fill-rule="evenodd" clip-rule="evenodd" d="M23.3333 43.3333H56.6666V53.3333C45.5555 57.7778 34.4444 57.7777 23.3333 53.3333V43.3333Z" fill="white" style="fill:white;fill-opacity:1;"/>
</g>
<path opacity="0.95" fill-rule="evenodd" clip-rule="evenodd" d="M30 33.3333C31.8409 33.3333 33.3333 34.8257 33.3333 36.6667V40C33.3333 41.841 31.8409 43.3333 30 43.3333C28.159 43.3333 26.6666 41.841 26.6666 40V36.6667C26.6666 34.8257 28.159 33.3333 30 33.3333ZM50 33.3333C51.8409 33.3333 53.3333 34.8257 53.3333 36.6667V40C53.3333 41.841 51.8409 43.3333 50 43.3333C48.159 43.3333 46.6666 41.841 46.6666 40V36.6667C46.6666 34.8257 48.159 33.3333 50 33.3333Z" fill="#21242C" style="fill:#21242C;fill:color(display-p3 0.1294 0.1412 0.1725);fill-opacity:1;"/>
<path fill-rule="evenodd" clip-rule="evenodd" d="M28.8228 37.1561C29.7433 37.1561 30.4895 36.4099 30.4895 35.4895C30.4895 34.569 29.7433 33.8228 28.8228 33.8228C27.9023 33.8228 27.1561 34.569 27.1561 35.4895C27.1561 36.4099 27.9023 37.1561 28.8228 37.1561ZM48.8228 37.1561C49.7433 37.1561 50.4895 36.4099 50.4895 35.4895C50.4895 34.569 49.7433 33.8228 48.8228 33.8228C47.9023 33.8228 47.1561 34.569 47.1561 35.4895C47.1561 36.4099 47.9023 37.1561 48.8228 37.1561Z" fill="white" style="fill:white;fill-opacity:1;"/>
</g>
<defs>
<radialGradient id="paint0_radial_1_3222" cx="0" cy="0" r="1" gradientUnits="userSpaceOnUse" gradientTransform="translate(25 21.6667) rotate(57.2648) scale(55.4777 32.3203)">
<stop stop-color="#FFE14D" style="stop-color:#FFE14D;stop-color:color(display-p3 1.0000 0.8824 0.3020);stop-opacity:1;"/>
<stop offset="1" stop-color="#FF9500" style="stop-color:#FF9500;stop-color:color(display-p3 1.0000 0.5843 0.0000);stop-opacity:1;"/>
</radialGradient>
<clipPath id="clip0_1_3222">
<rect width="80" height="80" fill="white" style="fill:white;fill-opacity:1;"/>
</clipPath>
</defs>
</svg>
