<svg width="213" height="64" viewBox="0 0 213 64" fill="none" xmlns="http://www.w3.org/2000/svg">
<g clip-path="url(#clip0_1_2484)">
<g clip-path="url(#clip1_1_2484)">
<path d="M24 56C37.2548 56 48 45.2548 48 32C48 18.7452 37.2548 8 24 8C10.7452 8 0 18.7452 0 32C0 45.2548 10.7452 56 24 56Z" fill="url(#paint0_linear_1_2484)" style=""/>
<g style="mix-blend-mode:multiply" opacity="0.3">
<path d="M24 41.6C29.3019 41.6 33.6 37.3019 33.6 32C33.6 26.6981 29.3019 22.4 24 22.4C18.6981 22.4 14.4 26.6981 14.4 32C14.4 37.3019 18.6981 41.6 24 41.6Z" fill="#FFB63C" style="fill:#FFB63C;fill:color(display-p3 1.0000 0.7137 0.2353);fill-opacity:1;"/>
</g>
<path d="M24 34.8C25.5464 34.8 26.8 33.5464 26.8 32C26.8 30.4536 25.5464 29.2 24 29.2C22.4536 29.2 21.2 30.4536 21.2 32C21.2 33.5464 22.4536 34.8 24 34.8Z" fill="white" style="fill:white;fill-opacity:1;"/>
</g>
<path fill-rule="evenodd" clip-rule="evenodd" d="M182.4 18.4C183.284 18.4 184 19.1164 184 20V42.4C184 43.2837 184.716 44 185.6 44H200V18.4H211.2C212.084 18.4 212.8 19.1164 212.8 20V52C212.8 55.5346 209.935 58.4 206.4 58.4H176.856C176.321 58.4 175.822 58.1326 175.525 57.6875L172.8 53.6H198.4C199.284 53.6 200 52.8837 200 52V46.4L199.929 46.6119C199.494 47.9186 198.271 48.8 196.894 48.8H177.6C174.065 48.8 171.2 45.9346 171.2 42.4V18.4H182.4ZM118.4 18.4C119.284 18.4 120 19.1164 120 20V52C120 55.5346 117.135 58.4 113.6 58.4H97.6563C97.1213 58.4 96.6218 58.1326 96.325 57.6875L93.6 53.6H105.6C106.484 53.6 107.2 52.8837 107.2 52V18.4H118.4ZM100.8 5.60001C101.684 5.60001 102.4 6.31635 102.4 7.20001V48.8H92.7064C91.3291 48.8 90.1062 47.9186 89.6706 46.6119L89.6 46.4L89.5294 46.6119C89.0938 47.9186 87.871 48.8 86.4936 48.8H67.2C63.6654 48.8 60.8 45.9346 60.8 42.4V24.8C60.8 21.2654 63.6654 18.4 67.2 18.4H86.4936C87.871 18.4 89.0938 19.2814 89.5294 20.5881L89.6 20.8V5.60001H100.8ZM160 18.4C163.535 18.4 166.4 21.2654 166.4 24.8V48.8H156.707C155.331 48.8 154.11 47.9209 153.673 46.6166L153.6 46.4L153.529 46.6119C153.094 47.9186 151.871 48.8 150.494 48.8H131.2C127.665 48.8 124.8 45.9346 124.8 42.4V36C124.8 32.4654 127.665 29.6 131.2 29.6H153.6V24.8C153.6 23.9164 152.884 23.2 152 23.2H124.8C124.8 20.549 126.949 18.4 129.6 18.4H160ZM153.6 34.4H139.2C138.316 34.4 137.6 35.1164 137.6 36V42.4C137.6 43.2837 138.316 44 139.2 44H152C152.884 44 153.6 43.2837 153.6 42.4V34.4ZM89.6 23.2H75.2C74.3163 23.2 73.6 23.9164 73.6 24.8V42.4C73.6 43.2837 74.3163 44 75.2 44H88C88.8837 44 89.6 43.2837 89.6 42.4V23.2ZM120 5.60001V13.6H107.2V5.60001H120Z" fill="white" style="fill:white;fill-opacity:1;"/>
</g>
<defs>
<linearGradient id="paint0_linear_1_2484" x1="24" y1="8" x2="24" y2="56" gradientUnits="userSpaceOnUse">
<stop stop-color="#FFE359" style="stop-color:#FFE359;stop-color:color(display-p3 1.0000 0.8902 0.3490);stop-opacity:1;"/>
<stop offset="1" stop-color="#FF9500" style="stop-color:#FF9500;stop-color:color(display-p3 1.0000 0.5843 0.0000);stop-opacity:1;"/>
</linearGradient>
<clipPath id="clip0_1_2484">
<rect width="212.8" height="64" fill="white" style="fill:white;fill-opacity:1;"/>
</clipPath>
<clipPath id="clip1_1_2484">
<rect width="48" height="48" fill="white" style="fill:white;fill-opacity:1;" transform="translate(0 8)"/>
</clipPath>
</defs>
</svg>
