<svg width="203" height="64" viewBox="0 0 203 64" fill="none" xmlns="http://www.w3.org/2000/svg">
<path fill-rule="evenodd" clip-rule="evenodd" d="M30.3932 53.2888C30.3932 53.2888 30.3088 53.7552 30.049 54.3215C29.7881 54.8873 29.3466 55.5528 28.5906 55.9363C28.2166 56.1157 27.8013 56.2029 27.389 56.2328C27.1821 56.2506 26.9786 56.2463 26.7834 56.2271C26.5875 56.2101 26.3982 56.1833 26.2208 56.1512C26.0435 56.1193 25.8783 56.0822 25.7304 56.0444C25.5848 56.0009 25.4562 55.9574 25.3497 55.9187C25.1366 55.8416 25.0114 55.7844 25.0114 55.7844C25.0114 55.7844 25.1729 55.3391 25.5295 54.8237C25.7072 54.5655 25.9326 54.2894 26.2045 54.04C26.3406 53.9148 26.4878 53.7976 26.6475 53.6902C26.8084 53.5796 26.9811 53.4805 27.1657 53.3985C27.5359 53.2312 27.9142 53.1606 28.2837 53.1191C28.6539 53.0758 29.008 53.0847 29.3174 53.1169C29.942 53.1562 30.3932 53.2888 30.3932 53.2888Z" fill="white" style="fill:white;fill-opacity:1;"/>
<path fill-rule="evenodd" clip-rule="evenodd" d="M30.3627 53.421C30.3627 53.421 30.4874 52.9648 30.517 52.3406C30.5477 51.7167 30.4884 50.9255 30.1621 50.2696C30.002 49.9293 29.791 49.6508 29.5634 49.4268C29.4487 49.3175 29.3321 49.2138 29.2173 49.1172C29.1018 49.0229 28.9863 48.9409 28.8752 48.8697C28.7641 48.7986 28.6572 48.7386 28.5594 48.6887C28.4636 48.6328 28.3766 48.5873 28.3031 48.5518C28.156 48.4803 28.0626 48.4474 28.0626 48.4474C28.0626 48.4474 27.8626 48.8766 27.7255 49.4827C27.6575 49.7861 27.6062 50.134 27.6099 50.4973C27.612 50.6787 27.6272 50.8651 27.6618 51.0496C27.6978 51.2307 27.7524 51.4111 27.8306 51.5869C27.9877 51.9359 28.2198 52.2463 28.4887 52.4861C28.7585 52.7237 29.057 52.913 29.3337 53.059C29.8949 53.3273 30.3627 53.421 30.3627 53.421Z" fill="white" style="fill:white;fill-opacity:1;"/>
<path fill-rule="evenodd" clip-rule="evenodd" d="M25.6609 51.6566C25.6609 51.6566 25.4825 52.0956 25.1115 52.598C24.9254 52.849 24.6899 53.1153 24.3982 53.3475C24.2524 53.4636 24.0926 53.5712 23.9177 53.6639C23.744 53.7545 23.5578 53.8257 23.3552 53.8772C22.9521 53.9772 22.5219 53.9885 22.1155 53.9286C21.7119 53.864 21.3239 53.7437 20.9879 53.6123C20.6556 53.4749 20.3812 53.3177 20.1861 53.2022C19.9916 53.0856 19.88 53.0054 19.88 53.0054C19.88 53.0054 20.1288 52.6029 20.5841 52.1695C21.0387 51.7353 21.6944 51.2686 22.475 51.1115C22.8721 51.0227 23.2645 51.0179 23.6301 51.061C23.9938 51.107 24.3479 51.1719 24.644 51.2666C24.7937 51.3112 24.9294 51.3624 25.0528 51.407C25.1774 51.4491 25.2862 51.4909 25.3764 51.528C25.5564 51.6017 25.6609 51.6566 25.6609 51.6566Z" fill="white" style="fill:white;fill-opacity:1;"/>
<path fill-rule="evenodd" clip-rule="evenodd" d="M25.6035 51.7799C25.6035 51.7799 25.8195 51.3585 25.9757 50.7553C26.0544 50.4538 26.1193 50.1073 26.1411 49.7483C26.1518 49.5688 26.152 49.3861 26.1375 49.2046C26.1242 49.0209 26.0987 48.8334 26.054 48.6526C25.9664 48.2873 25.8105 47.9828 25.6361 47.7115C25.4645 47.4355 25.2653 47.2081 25.0742 47.0273C24.887 46.8401 24.7137 46.69 24.5817 46.5938C24.4507 46.4961 24.3648 46.4461 24.3648 46.4461C24.3648 46.4461 24.0812 46.826 23.8243 47.3898C23.5685 47.9537 23.3423 48.7071 23.4959 49.4741C23.5788 49.8472 23.7502 50.1858 23.9599 50.4834C24.1679 50.7839 24.4307 51.0138 24.6716 51.2134C24.7935 51.3106 24.9105 51.3994 25.0212 51.4705C25.1328 51.5391 25.2349 51.5964 25.3213 51.6424C25.4939 51.7341 25.6035 51.7799 25.6035 51.7799Z" fill="white" style="fill:white;fill-opacity:1;"/>
<path fill-rule="evenodd" clip-rule="evenodd" d="M21.3596 49.0952C21.3596 49.0952 21.0956 49.4882 20.6287 49.9056C20.3957 50.113 20.1073 50.3303 19.7767 50.4949C19.4469 50.659 19.0699 50.7764 18.6504 50.7967C18.4408 50.8068 18.2305 50.7923 18.0232 50.7589C17.8196 50.7214 17.6212 50.662 17.4283 50.5913C17.0451 50.4468 16.6784 50.2621 16.3881 50.0518C16.0928 49.847 15.8499 49.6434 15.6814 49.4913C15.5961 49.4163 15.5328 49.3508 15.4905 49.3044C15.4485 49.2581 15.4252 49.2324 15.4252 49.2324C15.4252 49.2324 15.7516 48.8888 16.2832 48.5606C16.8113 48.234 17.5573 47.9031 18.3564 47.9064C18.7525 47.9122 19.1432 47.9813 19.4957 48.0944C19.6719 48.1509 19.8391 48.2179 19.9957 48.2906C20.1536 48.3616 20.3071 48.4306 20.4446 48.5049C20.7212 48.6507 20.9459 48.8022 21.1046 48.9148C21.2674 49.0217 21.3596 49.0952 21.3596 49.0952Z" fill="white" style="fill:white;fill-opacity:1;"/>
<path fill-rule="evenodd" clip-rule="evenodd" d="M21.2793 49.2041C21.2793 49.2041 21.5768 48.8356 21.852 48.2783C21.9908 47.9987 22.1216 47.6776 22.2185 47.3273C22.3162 46.9766 22.3752 46.6031 22.36 46.233C22.3523 46.0478 22.3263 45.8722 22.2867 45.7067C22.2505 45.5372 22.2033 45.3747 22.1455 45.2241C22.0328 44.9203 21.873 44.6697 21.7353 44.4407C21.5925 44.2174 21.4471 44.042 21.3368 43.9215C21.2806 43.8623 21.2369 43.8137 21.2068 43.7802C21.1756 43.7477 21.1584 43.7297 21.1584 43.7297C21.1584 43.7297 20.8036 44.0428 20.4338 44.5449C20.0623 45.0501 19.695 45.7328 19.6912 46.5122C19.6856 46.9057 19.7896 47.2658 19.9377 47.5962C20.0115 47.7616 20.0968 47.9188 20.1876 48.0657C20.2799 48.2109 20.3839 48.3386 20.4833 48.4585C20.6846 48.6957 20.8805 48.8873 21.0283 49.0156C21.1804 49.1384 21.2793 49.2041 21.2793 49.2041Z" fill="white" style="fill:white;fill-opacity:1;"/>
<path fill-rule="evenodd" clip-rule="evenodd" d="M17.6697 45.7119C17.6697 45.7119 17.3304 46.043 16.7908 46.3533C16.2507 46.6626 15.5062 46.9477 14.6702 46.82C14.2525 46.7561 13.8723 46.5789 13.5183 46.3648C13.161 46.1529 12.8628 45.8799 12.6128 45.6205C12.3644 45.3598 12.1582 45.117 12.0353 44.9262C11.9074 44.7386 11.8396 44.6186 11.8396 44.6186C11.8396 44.6186 12.2295 44.35 12.8186 44.1377C13.4074 43.9243 14.1854 43.7676 14.9799 43.9265C15.7591 44.0972 16.4258 44.537 16.896 44.9455C17.3829 45.3392 17.6697 45.7119 17.6697 45.7119Z" fill="white" style="fill:white;fill-opacity:1;"/>
<path fill-rule="evenodd" clip-rule="evenodd" d="M17.569 45.802C17.569 45.802 17.9353 45.5026 18.3217 45.0108C18.7089 44.52 19.1207 43.8401 19.2376 43.1145C19.2956 42.7517 19.2941 42.3956 19.238 42.0818C19.1786 41.7703 19.0972 41.4761 19.0005 41.2304C18.9058 40.9838 18.7896 40.7891 18.7176 40.6416C18.6408 40.4978 18.5844 40.4165 18.5844 40.4165C18.5844 40.4165 18.1725 40.6499 17.7081 41.0639C17.2449 41.4788 16.7245 42.0838 16.5733 42.8371C16.4057 43.6004 16.659 44.3517 16.9435 44.9079C17.2461 45.4511 17.569 45.802 17.569 45.802Z" fill="white" style="fill:white;fill-opacity:1;"/>
<path fill-rule="evenodd" clip-rule="evenodd" d="M14.7645 41.6357C14.7645 41.6357 14.3642 41.8897 13.771 42.0822C13.18 42.2728 12.382 42.4035 11.5958 42.1026C11.2098 41.9491 10.8626 41.7029 10.56 41.4204C10.2597 41.1366 10.0269 40.8069 9.83016 40.5041C9.73425 40.3516 9.64582 40.2063 9.57801 40.07C9.51141 39.9335 9.45622 39.8094 9.41246 39.7048C9.32471 39.4955 9.28214 39.3647 9.28214 39.3647C9.28214 39.3647 9.71906 39.1822 10.3401 39.0958C10.6504 39.0521 11.0062 39.031 11.3742 39.0622C11.741 39.094 12.1203 39.1774 12.4958 39.3361C12.8684 39.4959 13.1839 39.7233 13.4569 39.9707C13.7407 40.213 13.9754 40.4792 14.1627 40.7279C14.3476 40.9778 14.5112 41.197 14.6099 41.3645C14.7121 41.53 14.7645 41.6357 14.7645 41.6357Z" fill="white" style="fill:white;fill-opacity:1;"/>
<path fill-rule="evenodd" clip-rule="evenodd" d="M14.6463 41.7027C14.6463 41.7027 15.0666 41.4854 15.5453 41.0846C16.0268 40.6836 16.5595 40.1092 16.8294 39.4212C16.9708 39.0732 17.031 38.7306 17.0406 38.4123C17.0526 38.0926 17.0361 37.7864 16.9863 37.5286C16.9642 37.3987 16.9321 37.281 16.9072 37.1734C16.8835 37.0651 16.858 36.9705 16.8343 36.8922C16.7873 36.7356 16.7479 36.6448 16.7479 36.6448C16.7479 36.6448 16.2967 36.7882 15.7578 37.0973C15.4885 37.2525 15.198 37.4504 14.9332 37.6989C14.667 37.9479 14.4277 38.2479 14.2791 38.5992C14.1274 38.9515 14.0631 39.3293 14.0613 39.693C14.0705 40.0516 14.1349 40.3989 14.2161 40.7006C14.295 41.0038 14.4165 41.248 14.4987 41.4257C14.5846 41.6014 14.6463 41.7027 14.6463 41.7027Z" fill="white" style="fill:white;fill-opacity:1;"/>
<mask id="mask0_1_2788" style="mask-type:alpha" maskUnits="userSpaceOnUse" x="7" y="32" width="6" height="6">
<path d="M7.83035 33.7174L11.7808 32.8053L12.766 37.0726L8.81554 37.9847L7.83035 33.7174Z" fill="white" style="fill:white;fill-opacity:1;"/>
</mask>
<g mask="url(#mask0_1_2788)">
<path fill-rule="evenodd" clip-rule="evenodd" d="M12.7606 37.0492C12.7606 37.0492 12.3168 37.2151 11.6959 37.2819C11.3853 37.3147 11.03 37.3217 10.662 37.2642C10.295 37.2063 9.90728 37.0857 9.56451 36.8557C9.21719 36.6273 8.92647 36.3166 8.68674 35.9796C8.45896 35.64 8.29079 35.2721 8.16113 34.9364C8.02673 34.6014 7.96028 34.2924 7.91576 34.0704C7.87202 33.8479 7.85666 33.7113 7.85666 33.7113C7.85666 33.7113 8.3215 33.6214 8.94746 33.6626C9.26031 33.6827 9.61315 33.7343 9.96746 33.8395C10.323 33.9446 10.6719 34.1043 11.0086 34.3355C11.3407 34.5678 11.6074 34.8535 11.8207 35.1521C12.0458 35.448 12.226 35.7553 12.3586 36.0369C12.4867 36.3201 12.5968 36.5694 12.6632 36.7524C12.7304 36.935 12.7606 37.0492 12.7606 37.0492Z" fill="white" style="fill:white;fill-opacity:1;"/>
</g>
<path fill-rule="evenodd" clip-rule="evenodd" d="M12.6306 37.0904C12.6306 37.0904 13.0867 36.9642 13.6369 36.6709C13.9122 36.5247 14.2112 36.3381 14.4904 36.1108C14.7708 35.8834 15.0236 35.618 15.2365 35.305C15.4447 34.9934 15.5721 34.6696 15.6449 34.3591C15.7294 34.0459 15.7677 33.7436 15.7726 33.4797C15.7727 33.2165 15.7695 32.987 15.7539 32.824C15.739 32.6611 15.7189 32.564 15.7189 32.564C15.7189 32.564 15.2477 32.6128 14.6575 32.8061C14.3627 32.9033 14.0379 33.038 13.7286 33.2277C13.4205 33.417 13.1193 33.6632 12.9039 33.9768C12.6837 34.2913 12.548 34.6472 12.4687 35.0037C12.401 35.3574 12.3979 35.7094 12.4159 36.0212C12.4293 36.3347 12.4928 36.5999 12.5413 36.7894C12.5903 36.9787 12.6306 37.0904 12.6306 37.0904Z" fill="white" style="fill:white;fill-opacity:1;"/>
<path fill-rule="evenodd" clip-rule="evenodd" d="M11.7329 32.1501C11.7329 32.1501 11.2647 32.2224 10.6428 32.1619C10.3319 32.131 9.98254 32.0655 9.63333 31.9345C9.28301 31.8032 8.93363 31.606 8.64332 31.3105C8.34983 31.0153 8.12386 30.6513 7.96162 30.2714C7.81151 29.8911 7.71712 29.4957 7.65862 29.1392C7.59741 28.7827 7.60117 28.466 7.59887 28.2388C7.60062 28.0118 7.61307 27.8745 7.61307 27.8745C7.61307 27.8745 8.08624 27.8821 8.69093 28.0516C9.29847 28.2201 10.0262 28.5448 10.5685 29.1351C10.8472 29.4307 11.0513 29.7652 11.2005 30.1013C11.3523 30.4372 11.4738 30.7746 11.5454 31.0774C11.5839 31.2286 11.6082 31.3717 11.6346 31.5002C11.6625 31.6288 11.6826 31.7436 11.6971 31.84C11.7262 32.0323 11.7329 32.1501 11.7329 32.1501Z" fill="white" style="fill:white;fill-opacity:1;"/>
<path fill-rule="evenodd" clip-rule="evenodd" d="M11.5978 32.1643C11.5978 32.1643 12.0703 32.1334 12.6682 31.9579C12.9673 31.8706 13.2979 31.7485 13.617 31.5831C13.9348 31.4176 14.2419 31.2089 14.5126 30.9465C14.7803 30.6843 14.9665 30.3945 15.1046 30.1064C15.2549 29.818 15.3491 29.5312 15.4076 29.275C15.4635 29.0189 15.5126 28.794 15.5262 28.6319C15.544 28.4696 15.5434 28.3708 15.5434 28.3708C15.5434 28.3708 15.0722 28.3214 14.4557 28.3891C13.8421 28.4578 13.0703 28.6484 12.4976 29.1732C12.219 29.4354 12.0149 29.7558 11.8657 30.0885C11.7193 30.4211 11.6523 30.7647 11.6052 31.0738C11.5845 31.2283 11.567 31.3745 11.5641 31.5057C11.5626 31.6369 11.5658 31.7539 11.5709 31.8516C11.5809 32.0468 11.5978 32.1643 11.5978 32.1643Z" fill="white" style="fill:white;fill-opacity:1;"/>
<path fill-rule="evenodd" clip-rule="evenodd" d="M11.7283 27.1451C11.7283 27.1451 11.2555 27.1192 10.6586 26.9314C10.0627 26.7425 9.3336 26.3853 8.88052 25.6854C8.40822 24.9833 8.32852 24.0776 8.36273 23.3568C8.4187 22.6397 8.57601 22.1096 8.57601 22.1096C8.57601 22.1096 9.03719 22.2148 9.59522 22.5058C10.1534 22.7956 10.8102 23.2664 11.2128 23.9548C11.4138 24.2991 11.5574 24.6715 11.6343 25.0313C11.7075 25.3902 11.7542 25.7449 11.7677 26.0569C11.7833 26.3691 11.7588 26.6385 11.755 26.8338C11.7452 27.0283 11.7283 27.1451 11.7283 27.1451Z" fill="white" style="fill:white;fill-opacity:1;"/>
<path fill-rule="evenodd" clip-rule="evenodd" d="M11.5939 27.131C11.5939 27.131 12.0626 27.1983 12.683 27.1498C13.3036 27.1026 14.0675 26.9441 14.6989 26.5421C15.3116 26.1364 15.696 25.5682 15.9171 25.0914C16.1599 24.6202 16.2335 24.2329 16.2335 24.2329C16.2335 24.2329 15.7825 24.0873 15.1667 24.0265C14.5505 23.9667 13.7678 23.9969 13.0929 24.3906C12.7558 24.5873 12.5027 24.8614 12.2885 25.1562C12.0703 25.4503 11.9313 25.7721 11.8275 26.0657C11.7258 26.3598 11.6524 26.6252 11.6294 26.8191C11.6005 27.0124 11.5939 27.131 11.5939 27.131Z" fill="white" style="fill:white;fill-opacity:1;"/>
<path fill-rule="evenodd" clip-rule="evenodd" d="M12.7572 22.2463C12.7572 22.2463 12.3002 22.1236 11.7535 21.8163C11.2041 21.507 10.5873 21.015 10.2729 20.232C10.1108 19.8389 10.0652 19.4205 10.0741 19.0092C10.0782 18.8036 10.0966 18.6 10.1246 18.404C10.1544 18.2087 10.2025 18.0249 10.2496 17.8512C10.3467 17.5053 10.4582 17.2081 10.5486 17.0004C10.6454 16.7956 10.7142 16.6763 10.7142 16.6763C10.7142 16.6763 11.1448 16.8742 11.6276 17.2714C11.8706 17.4701 12.1221 17.7149 12.3522 18.0084C12.5831 18.3024 12.7856 18.6413 12.9155 19.0211C12.9802 19.2111 13.0239 19.4024 13.0505 19.5916C13.0821 19.7831 13.1003 19.9743 13.1041 20.1595C13.1153 20.5315 13.0616 20.8775 13.0209 21.1897C12.9735 21.4992 12.9056 21.7617 12.8493 21.9479C12.7905 22.1385 12.7572 22.2463 12.7572 22.2463Z" fill="white" style="fill:white;fill-opacity:1;"/>
<path fill-rule="evenodd" clip-rule="evenodd" d="M12.6271 22.2047C12.6271 22.2047 13.0721 22.3673 13.6877 22.4474C14.2995 22.5273 15.1028 22.5374 15.7887 22.2684C16.1269 22.1315 16.4287 21.9469 16.6753 21.7402C16.7986 21.6367 16.909 21.5282 17.0074 21.4184C17.1077 21.3097 17.2047 21.2039 17.2855 21.0992C17.4496 20.8912 17.566 20.6955 17.6453 20.5527C17.731 20.413 17.7728 20.3234 17.7728 20.3234C17.7728 20.3234 17.3619 20.0888 16.7678 19.9012C16.4716 19.8086 16.1241 19.7265 15.7655 19.7019C15.4077 19.6778 15.0317 19.7083 14.6648 19.8335C14.4811 19.8959 14.3088 19.9791 14.1472 20.0768C13.9907 20.1767 13.849 20.2926 13.7171 20.4161C13.4566 20.6647 13.2279 20.9407 13.0764 21.2107C12.9177 21.4781 12.8029 21.7267 12.7282 21.9075C12.6892 21.9975 12.665 22.0722 12.6501 22.1241C12.6353 22.1759 12.6271 22.2047 12.6271 22.2047Z" fill="white" style="fill:white;fill-opacity:1;"/>
<path fill-rule="evenodd" clip-rule="evenodd" d="M14.7717 17.6636C14.7717 17.6636 14.3489 17.4495 13.8801 17.0389C13.4124 16.6279 12.899 16.0138 12.7478 15.1815C12.6825 14.7722 12.7164 14.349 12.8046 13.9455C12.8898 13.5399 13.057 13.1738 13.2151 12.8496C13.2965 12.689 13.3767 12.5397 13.4578 12.4108C13.5407 12.2836 13.6187 12.1725 13.6859 12.0812C13.8203 11.8986 13.9106 11.7949 13.9106 11.7949C13.9106 11.7949 14.2916 12.0762 14.6846 12.5648C14.8814 12.8087 15.0821 13.1033 15.2443 13.4352C15.3255 13.6012 15.3968 13.7763 15.4534 13.9592C15.5116 14.1433 15.5594 14.3385 15.5853 14.5384C15.6399 14.9407 15.6027 15.3253 15.5347 15.6896C15.4712 16.057 15.3621 16.3942 15.2437 16.6818C15.1314 16.9734 15.0191 17.2214 14.9271 17.3927C14.8363 17.5647 14.7717 17.6636 14.7717 17.6636Z" fill="white" style="fill:white;fill-opacity:1;"/>
<path fill-rule="evenodd" clip-rule="evenodd" d="M14.6529 17.5964C14.6529 17.5964 15.0546 17.8463 15.6444 18.0527C16.2338 18.2601 17.0077 18.428 17.7311 18.3026C18.1033 18.2459 18.4297 18.1222 18.7092 17.9672C18.9861 17.8104 19.2442 17.6412 19.4397 17.4656C19.54 17.3796 19.6258 17.2923 19.7044 17.2148C19.785 17.1389 19.8532 17.0683 19.9083 17.0078C20.0183 16.8868 20.0762 16.8063 20.0762 16.8063C20.0762 16.8063 19.7216 16.4926 19.1797 16.1888C18.9083 16.0376 18.5894 15.8897 18.2402 15.79C18.0655 15.7402 17.8834 15.7026 17.6958 15.6825C17.51 15.664 17.3232 15.6664 17.132 15.6911C16.7524 15.7422 16.3912 15.8781 16.0825 16.0662C15.7782 16.2573 15.5121 16.49 15.2937 16.7138C15.0813 16.9416 14.926 17.1661 14.8168 17.3285C14.7089 17.4917 14.6529 17.5964 14.6529 17.5964Z" fill="white" style="fill:white;fill-opacity:1;"/>
<path fill-rule="evenodd" clip-rule="evenodd" d="M17.6835 13.5917C17.6835 13.5917 17.3134 13.2961 16.9371 12.7972C16.7492 12.5473 16.5608 12.2457 16.4209 11.8998C16.3513 11.727 16.2929 11.5426 16.2544 11.3494C16.2188 11.1586 16.2021 10.9584 16.2107 10.7498C16.23 10.335 16.3393 9.91684 16.5148 9.54648C16.6918 9.17723 16.9176 8.83906 17.139 8.55386C17.5995 8.00121 18.0382 7.66422 18.0382 7.66422C18.0382 7.66422 18.3531 8.0175 18.6386 8.57767C18.9247 9.13713 19.186 9.90024 19.1128 10.6922C19.0843 11.0981 18.9779 11.4761 18.8327 11.8146C18.758 11.9817 18.6794 12.1449 18.5998 12.3007C18.5185 12.4548 18.4325 12.5977 18.3468 12.728C18.2609 12.8583 18.1754 12.9758 18.0951 13.0791C18.019 13.1864 17.9483 13.2792 17.8875 13.3552C17.7657 13.507 17.6835 13.5917 17.6835 13.5917Z" fill="white" style="fill:white;fill-opacity:1;"/>
<path fill-rule="evenodd" clip-rule="evenodd" d="M23.967 9.51241C24.8638 8.88447 25.427 7.96076 25.6566 6.74131C24.4321 6.53994 23.3715 6.75324 22.4747 7.38118C21.5779 8.00912 21.0147 8.93283 20.7852 10.1523C22.0096 10.3536 23.0702 10.1404 23.967 9.51241Z" fill="white" style="fill:white;fill-opacity:1;"/>
<path fill-rule="evenodd" clip-rule="evenodd" d="M17.5812 13.5018C17.5812 13.5018 17.9236 13.8286 18.4576 14.15C18.7241 14.3109 19.0376 14.4717 19.3755 14.5945C19.5445 14.656 19.7187 14.7074 19.8978 14.7459C20.0794 14.7871 20.265 14.8146 20.4513 14.8235C20.8264 14.8438 21.1605 14.7788 21.4719 14.6913C21.785 14.6054 22.059 14.4791 22.2863 14.3474C22.7567 14.1037 23.0444 13.8345 23.0444 13.8345C23.0444 13.8345 22.7614 13.4544 22.2945 13.0472C21.8268 12.6407 21.1708 12.2102 20.3907 12.1373C20.0094 12.1105 19.6368 12.1787 19.2919 12.2954C19.1177 12.3516 18.956 12.4259 18.8077 12.5099C18.6579 12.5923 18.5177 12.6808 18.3894 12.7697C18.2612 12.8583 18.1449 12.9475 18.0428 13.0309C17.945 13.1183 17.8612 13.2002 17.7928 13.2699C17.6561 13.4097 17.5812 13.5018 17.5812 13.5018Z" fill="white" style="fill:white;fill-opacity:1;"/>
<path d="M31.8504 54.1223L35.133 54.987" stroke="white" style="stroke:white;stroke-opacity:1;" stroke-width="0.944524" stroke-linecap="round" stroke-linejoin="round"/>
<path fill-rule="evenodd" clip-rule="evenodd" d="M171.694 53.2888C171.694 53.2888 171.778 53.7552 172.038 54.3215C172.299 54.8873 172.74 55.5528 173.496 55.9363C173.87 56.1157 174.286 56.2029 174.698 56.2328C174.905 56.2506 175.108 56.2463 175.304 56.2271C175.499 56.2101 175.689 56.1833 175.866 56.1512C176.043 56.1193 176.209 56.0822 176.357 56.0444C176.502 56.0009 176.631 55.9574 176.737 55.9187C176.95 55.8416 177.076 55.7844 177.076 55.7844C177.076 55.7844 176.914 55.3391 176.558 54.8237C176.38 54.5655 176.154 54.2894 175.883 54.04C175.746 53.9148 175.599 53.7976 175.44 53.6902C175.279 53.5796 175.106 53.4805 174.921 53.3985C174.551 53.2312 174.173 53.1606 173.803 53.1191C173.433 53.0758 173.079 53.0847 172.77 53.1169C172.145 53.1562 171.694 53.2888 171.694 53.2888Z" fill="white" style="fill:white;fill-opacity:1;"/>
<path fill-rule="evenodd" clip-rule="evenodd" d="M171.724 53.421C171.724 53.421 171.6 52.9648 171.57 52.3406C171.539 51.7167 171.599 50.9255 171.925 50.2696C172.085 49.9293 172.296 49.6508 172.524 49.4268C172.638 49.3175 172.755 49.2138 172.87 49.1172C172.985 49.0229 173.101 48.9409 173.212 48.8697C173.323 48.7986 173.43 48.7386 173.528 48.6887C173.623 48.6328 173.71 48.5873 173.784 48.5518C173.931 48.4803 174.024 48.4474 174.024 48.4474C174.024 48.4474 174.224 48.8766 174.361 49.4827C174.43 49.7861 174.481 50.134 174.477 50.4973C174.475 50.6787 174.46 50.8651 174.425 51.0496C174.389 51.2307 174.335 51.4111 174.256 51.5869C174.099 51.9359 173.867 52.2463 173.598 52.4861C173.328 52.7237 173.03 52.913 172.753 53.059C172.192 53.3273 171.724 53.421 171.724 53.421Z" fill="white" style="fill:white;fill-opacity:1;"/>
<path fill-rule="evenodd" clip-rule="evenodd" d="M176.426 51.6566C176.426 51.6566 176.605 52.0956 176.976 52.598C177.162 52.849 177.397 53.1153 177.689 53.3475C177.835 53.4636 177.994 53.5712 178.169 53.6639C178.343 53.7545 178.529 53.8257 178.732 53.8772C179.135 53.9772 179.565 53.9885 179.972 53.9286C180.375 53.864 180.763 53.7437 181.099 53.6123C181.431 53.4749 181.706 53.3177 181.901 53.2022C182.095 53.0856 182.207 53.0054 182.207 53.0054C182.207 53.0054 181.958 52.6029 181.503 52.1695C181.048 51.7353 180.393 51.2686 179.612 51.1115C179.215 51.0227 178.823 51.0179 178.457 51.061C178.093 51.107 177.739 51.1719 177.443 51.2666C177.293 51.3112 177.158 51.3624 177.034 51.407C176.91 51.4491 176.801 51.4909 176.711 51.528C176.531 51.6017 176.426 51.6566 176.426 51.6566Z" fill="white" style="fill:white;fill-opacity:1;"/>
<path fill-rule="evenodd" clip-rule="evenodd" d="M176.484 51.7799C176.484 51.7799 176.267 51.3585 176.111 50.7553C176.033 50.4538 175.968 50.1073 175.946 49.7483C175.935 49.5688 175.935 49.3861 175.95 49.2046C175.963 49.0209 175.988 48.8334 176.033 48.6526C176.121 48.2873 176.276 47.9828 176.451 47.7115C176.623 47.4355 176.822 47.2081 177.013 47.0273C177.2 46.8401 177.373 46.69 177.505 46.5938C177.636 46.4961 177.722 46.4461 177.722 46.4461C177.722 46.4461 178.006 46.826 178.263 47.3898C178.519 47.9537 178.745 48.7071 178.591 49.4741C178.508 49.8472 178.337 50.1858 178.127 50.4834C177.919 50.7839 177.656 51.0138 177.415 51.2134C177.294 51.3106 177.177 51.3994 177.066 51.4705C176.954 51.5391 176.852 51.5964 176.766 51.6424C176.593 51.7341 176.484 51.7799 176.484 51.7799Z" fill="white" style="fill:white;fill-opacity:1;"/>
<path fill-rule="evenodd" clip-rule="evenodd" d="M180.727 49.0952C180.727 49.0952 180.991 49.4882 181.458 49.9056C181.691 50.113 181.98 50.3303 182.31 50.4949C182.64 50.659 183.017 50.7764 183.437 50.7967C183.646 50.8068 183.857 50.7923 184.064 50.7589C184.267 50.7214 184.466 50.662 184.659 50.5913C185.042 50.4468 185.409 50.2621 185.699 50.0518C185.994 49.847 186.237 49.6434 186.406 49.4913C186.491 49.4163 186.554 49.3508 186.597 49.3044C186.638 49.2581 186.662 49.2324 186.662 49.2324C186.662 49.2324 186.335 48.8888 185.804 48.5606C185.276 48.234 184.53 47.9031 183.731 47.9064C183.335 47.9122 182.944 47.9813 182.591 48.0944C182.415 48.1509 182.248 48.2179 182.091 48.2906C181.933 48.3616 181.78 48.4306 181.642 48.5049C181.366 48.6507 181.141 48.8022 180.982 48.9148C180.82 49.0217 180.727 49.0952 180.727 49.0952Z" fill="white" style="fill:white;fill-opacity:1;"/>
<path fill-rule="evenodd" clip-rule="evenodd" d="M180.808 49.2041C180.808 49.2041 180.51 48.8356 180.235 48.2783C180.096 47.9987 179.965 47.6776 179.869 47.3273C179.771 46.9766 179.712 46.6031 179.727 46.233C179.735 46.0478 179.761 45.8722 179.8 45.7067C179.837 45.5372 179.884 45.3747 179.942 45.2241C180.054 44.9203 180.214 44.6697 180.352 44.4407C180.495 44.2174 180.64 44.042 180.75 43.9215C180.806 43.8623 180.85 43.8137 180.88 43.7802C180.911 43.7477 180.929 43.7297 180.929 43.7297C180.929 43.7297 181.283 44.0428 181.653 44.5449C182.025 45.0501 182.392 45.7328 182.396 46.5122C182.401 46.9057 182.297 47.2658 182.149 47.5962C182.076 47.7616 181.99 47.9188 181.899 48.0657C181.807 48.2109 181.703 48.3386 181.604 48.4585C181.402 48.6957 181.207 48.8873 181.059 49.0156C180.907 49.1384 180.808 49.2041 180.808 49.2041Z" fill="white" style="fill:white;fill-opacity:1;"/>
<path fill-rule="evenodd" clip-rule="evenodd" d="M184.417 45.7119C184.417 45.7119 184.757 46.043 185.296 46.3533C185.836 46.6626 186.581 46.9477 187.417 46.82C187.835 46.7561 188.215 46.5789 188.569 46.3648C188.926 46.1529 189.224 45.8799 189.474 45.6205C189.723 45.3598 189.929 45.117 190.052 44.9262C190.18 44.7386 190.247 44.6186 190.247 44.6186C190.247 44.6186 189.857 44.35 189.268 44.1377C188.68 43.9243 187.902 43.7676 187.107 43.9265C186.328 44.0972 185.661 44.537 185.191 44.9455C184.704 45.3392 184.417 45.7119 184.417 45.7119Z" fill="white" style="fill:white;fill-opacity:1;"/>
<path fill-rule="evenodd" clip-rule="evenodd" d="M184.518 45.802C184.518 45.802 184.152 45.5026 183.765 45.0108C183.378 44.52 182.966 43.8401 182.849 43.1145C182.791 42.7517 182.793 42.3956 182.849 42.0818C182.908 41.7703 182.99 41.4761 183.086 41.2304C183.181 40.9838 183.297 40.7891 183.369 40.6416C183.446 40.4978 183.503 40.4165 183.503 40.4165C183.503 40.4165 183.915 40.6499 184.379 41.0639C184.842 41.4788 185.362 42.0838 185.514 42.8371C185.681 43.6004 185.428 44.3517 185.144 44.9079C184.841 45.4511 184.518 45.802 184.518 45.802Z" fill="white" style="fill:white;fill-opacity:1;"/>
<path fill-rule="evenodd" clip-rule="evenodd" d="M187.323 41.6357C187.323 41.6357 187.723 41.8897 188.316 42.0822C188.907 42.2728 189.705 42.4035 190.491 42.1026C190.877 41.9491 191.224 41.7029 191.527 41.4204C191.827 41.1366 192.06 40.8069 192.257 40.5041C192.353 40.3516 192.441 40.2063 192.509 40.07C192.576 39.9335 192.631 39.8094 192.675 39.7048C192.762 39.4955 192.805 39.3647 192.805 39.3647C192.805 39.3647 192.368 39.1822 191.747 39.0958C191.437 39.0521 191.081 39.031 190.713 39.0622C190.346 39.094 189.967 39.1774 189.591 39.3361C189.219 39.4959 188.903 39.7233 188.63 39.9707C188.346 40.213 188.112 40.4792 187.924 40.7279C187.739 40.9778 187.576 41.197 187.477 41.3645C187.375 41.53 187.323 41.6357 187.323 41.6357Z" fill="white" style="fill:white;fill-opacity:1;"/>
<path fill-rule="evenodd" clip-rule="evenodd" d="M187.441 41.7027C187.441 41.7027 187.02 41.4854 186.542 41.0846C186.06 40.6836 185.528 40.1092 185.258 39.4212C185.116 39.0732 185.056 38.7306 185.046 38.4123C185.034 38.0926 185.051 37.7864 185.101 37.5286C185.123 37.3987 185.155 37.281 185.18 37.1734C185.204 37.0651 185.229 36.9705 185.253 36.8922C185.3 36.7356 185.339 36.6448 185.339 36.6448C185.339 36.6448 185.79 36.7882 186.329 37.0973C186.598 37.2525 186.889 37.4504 187.154 37.6989C187.42 37.9479 187.659 38.2479 187.808 38.5992C187.96 38.9515 188.024 39.3293 188.026 39.693C188.017 40.0516 187.952 40.3989 187.871 40.7006C187.792 41.0038 187.671 41.248 187.588 41.4257C187.502 41.6014 187.441 41.7027 187.441 41.7027Z" fill="white" style="fill:white;fill-opacity:1;"/>
<mask id="mask1_1_2788" style="mask-type:alpha" maskUnits="userSpaceOnUse" x="189" y="32" width="6" height="6">
<path d="M194.257 33.7174L190.306 32.8053L189.321 37.0726L193.271 37.9847L194.257 33.7174Z" fill="white" style="fill:white;fill-opacity:1;"/>
</mask>
<g mask="url(#mask1_1_2788)">
<path fill-rule="evenodd" clip-rule="evenodd" d="M189.326 37.0492C189.326 37.0492 189.77 37.2151 190.391 37.2819C190.702 37.3147 191.057 37.3217 191.425 37.2642C191.792 37.2063 192.18 37.0857 192.522 36.8557C192.87 36.6273 193.161 36.3166 193.4 35.9796C193.628 35.64 193.796 35.2721 193.926 34.9364C194.06 34.6014 194.127 34.2924 194.171 34.0704C194.215 33.8479 194.23 33.7113 194.23 33.7113C194.23 33.7113 193.766 33.6214 193.14 33.6626C192.827 33.6827 192.474 33.7343 192.12 33.8395C191.764 33.9446 191.415 34.1043 191.078 34.3355C190.746 34.5678 190.48 34.8535 190.266 35.1521C190.041 35.448 189.861 35.7553 189.728 36.0369C189.6 36.3201 189.49 36.5694 189.424 36.7524C189.357 36.935 189.326 37.0492 189.326 37.0492Z" fill="white" style="fill:white;fill-opacity:1;"/>
</g>
<path fill-rule="evenodd" clip-rule="evenodd" d="M189.456 37.0904C189.456 37.0904 189 36.9642 188.45 36.6709C188.175 36.5247 187.876 36.3381 187.597 36.1108C187.316 35.8834 187.063 35.618 186.851 35.305C186.642 34.9934 186.515 34.6696 186.442 34.3591C186.358 34.0459 186.319 33.7436 186.314 33.4797C186.314 33.2165 186.318 32.987 186.333 32.824C186.348 32.6611 186.368 32.564 186.368 32.564C186.368 32.564 186.839 32.6128 187.43 32.8061C187.724 32.9033 188.049 33.038 188.358 33.2277C188.667 33.417 188.968 33.6632 189.183 33.9768C189.403 34.2913 189.539 34.6472 189.618 35.0037C189.686 35.3574 189.689 35.7094 189.671 36.0212C189.658 36.3347 189.594 36.5999 189.546 36.7894C189.497 36.9787 189.456 37.0904 189.456 37.0904Z" fill="white" style="fill:white;fill-opacity:1;"/>
<path fill-rule="evenodd" clip-rule="evenodd" d="M190.354 32.1501C190.354 32.1501 190.822 32.2224 191.444 32.1619C191.755 32.131 192.104 32.0655 192.454 31.9345C192.804 31.8032 193.153 31.606 193.444 31.3105C193.737 31.0153 193.963 30.6513 194.125 30.2714C194.276 29.8911 194.37 29.4957 194.428 29.1392C194.49 28.7827 194.486 28.466 194.488 28.2388C194.486 28.0118 194.474 27.8745 194.474 27.8745C194.474 27.8745 194.001 27.8821 193.396 28.0516C192.789 28.2201 192.061 28.5448 191.519 29.1351C191.24 29.4307 191.036 29.7652 190.887 30.1013C190.735 30.4372 190.613 30.7746 190.542 31.0774C190.503 31.2286 190.479 31.3717 190.452 31.5002C190.425 31.6288 190.404 31.7436 190.39 31.84C190.361 32.0323 190.354 32.1501 190.354 32.1501Z" fill="white" style="fill:white;fill-opacity:1;"/>
<path fill-rule="evenodd" clip-rule="evenodd" d="M190.489 32.1643C190.489 32.1643 190.017 32.1334 189.419 31.9579C189.12 31.8706 188.789 31.7485 188.47 31.5831C188.152 31.4176 187.845 31.2089 187.574 30.9465C187.307 30.6843 187.12 30.3945 186.982 30.1064C186.832 29.818 186.738 29.5312 186.679 29.275C186.624 29.0189 186.574 28.794 186.561 28.6319C186.543 28.4696 186.544 28.3708 186.544 28.3708C186.544 28.3708 187.015 28.3214 187.631 28.3891C188.245 28.4578 189.017 28.6484 189.589 29.1732C189.868 29.4354 190.072 29.7558 190.221 30.0885C190.368 30.4211 190.435 30.7647 190.482 31.0738C190.502 31.2283 190.52 31.3745 190.523 31.5057C190.524 31.6369 190.521 31.7539 190.516 31.8516C190.506 32.0468 190.489 32.1643 190.489 32.1643Z" fill="white" style="fill:white;fill-opacity:1;"/>
<path fill-rule="evenodd" clip-rule="evenodd" d="M190.359 27.1451C190.359 27.1451 190.832 27.1192 191.428 26.9314C192.024 26.7425 192.753 26.3853 193.207 25.6854C193.679 24.9833 193.759 24.0776 193.724 23.3568C193.668 22.6397 193.511 22.1096 193.511 22.1096C193.511 22.1096 193.05 22.2148 192.492 22.5058C191.934 22.7956 191.277 23.2664 190.874 23.9548C190.673 24.2991 190.53 24.6715 190.453 25.0313C190.379 25.3902 190.333 25.7449 190.319 26.0569C190.304 26.3691 190.328 26.6385 190.332 26.8338C190.342 27.0283 190.359 27.1451 190.359 27.1451Z" fill="white" style="fill:white;fill-opacity:1;"/>
<path fill-rule="evenodd" clip-rule="evenodd" d="M190.493 27.131C190.493 27.131 190.024 27.1983 189.404 27.1498C188.783 27.1026 188.02 26.9441 187.388 26.5421C186.775 26.1364 186.391 25.5682 186.17 25.0914C185.927 24.6202 185.854 24.2329 185.854 24.2329C185.854 24.2329 186.305 24.0873 186.92 24.0265C187.537 23.9667 188.319 23.9969 188.994 24.3906C189.331 24.5873 189.584 24.8614 189.799 25.1562C190.017 25.4503 190.156 25.7721 190.26 26.0657C190.361 26.3598 190.435 26.6252 190.458 26.8191C190.487 27.0124 190.493 27.131 190.493 27.131Z" fill="white" style="fill:white;fill-opacity:1;"/>
<path fill-rule="evenodd" clip-rule="evenodd" d="M189.33 22.2463C189.33 22.2463 189.787 22.1236 190.334 21.8163C190.883 21.507 191.5 21.015 191.814 20.232C191.976 19.8389 192.022 19.4205 192.013 19.0092C192.009 18.8036 191.99 18.6 191.962 18.404C191.933 18.2087 191.885 18.0249 191.837 17.8512C191.74 17.5053 191.629 17.2081 191.538 17.0004C191.442 16.7956 191.373 16.6763 191.373 16.6763C191.373 16.6763 190.942 16.8742 190.459 17.2714C190.216 17.4701 189.965 17.7149 189.735 18.0084C189.504 18.3024 189.301 18.6413 189.172 19.0211C189.107 19.2111 189.063 19.4024 189.037 19.5916C189.005 19.7831 188.987 19.9743 188.983 20.1595C188.972 20.5315 189.025 20.8775 189.066 21.1897C189.114 21.4992 189.181 21.7617 189.238 21.9479C189.297 22.1385 189.33 22.2463 189.33 22.2463Z" fill="white" style="fill:white;fill-opacity:1;"/>
<path fill-rule="evenodd" clip-rule="evenodd" d="M189.46 22.2047C189.46 22.2047 189.015 22.3673 188.399 22.4474C187.788 22.5273 186.984 22.5374 186.298 22.2684C185.96 22.1315 185.658 21.9469 185.412 21.7402C185.288 21.6367 185.178 21.5282 185.08 21.4184C184.979 21.3097 184.882 21.2039 184.802 21.0992C184.637 20.8912 184.521 20.6955 184.442 20.5527C184.356 20.413 184.314 20.3234 184.314 20.3234C184.314 20.3234 184.725 20.0888 185.319 19.9012C185.615 19.8086 185.963 19.7265 186.322 19.7019C186.679 19.6778 187.055 19.7083 187.422 19.8335C187.606 19.8959 187.778 19.9791 187.94 20.0768C188.096 20.1767 188.238 20.2926 188.37 20.4161C188.63 20.6647 188.859 20.9407 189.011 21.2107C189.169 21.4781 189.284 21.7267 189.359 21.9075C189.398 21.9975 189.422 22.0722 189.437 22.1241C189.452 22.1759 189.46 22.2047 189.46 22.2047Z" fill="white" style="fill:white;fill-opacity:1;"/>
<path fill-rule="evenodd" clip-rule="evenodd" d="M187.315 17.6636C187.315 17.6636 187.738 17.4495 188.207 17.0389C188.675 16.6279 189.188 16.0138 189.339 15.1815C189.405 14.7722 189.371 14.349 189.282 13.9455C189.197 13.5399 189.03 13.1738 188.872 12.8496C188.791 12.689 188.71 12.5397 188.629 12.4108C188.546 12.2836 188.468 12.1725 188.401 12.0812C188.267 11.8986 188.176 11.7949 188.176 11.7949C188.176 11.7949 187.795 12.0762 187.402 12.5648C187.206 12.8087 187.005 13.1033 186.843 13.4352C186.762 13.6012 186.69 13.7763 186.634 13.9592C186.575 14.1433 186.528 14.3385 186.502 14.5384C186.447 14.9407 186.484 15.3253 186.552 15.6896C186.616 16.057 186.725 16.3942 186.843 16.6818C186.956 16.9734 187.068 17.2214 187.16 17.3927C187.251 17.5647 187.315 17.6636 187.315 17.6636Z" fill="white" style="fill:white;fill-opacity:1;"/>
<path fill-rule="evenodd" clip-rule="evenodd" d="M187.434 17.5964C187.434 17.5964 187.032 17.8463 186.443 18.0527C185.853 18.2601 185.079 18.428 184.356 18.3026C183.984 18.2459 183.657 18.1222 183.378 17.9672C183.101 17.8104 182.843 17.6412 182.647 17.4656C182.547 17.3796 182.461 17.2923 182.383 17.2148C182.302 17.1389 182.234 17.0683 182.179 17.0078C182.069 16.8868 182.011 16.8063 182.011 16.8063C182.011 16.8063 182.365 16.4926 182.907 16.1888C183.179 16.0376 183.498 15.8897 183.847 15.79C184.022 15.7402 184.204 15.7026 184.391 15.6825C184.577 15.664 184.764 15.6664 184.955 15.6911C185.335 15.7422 185.696 15.8781 186.005 16.0662C186.309 16.2573 186.575 16.49 186.793 16.7138C187.006 16.9416 187.161 17.1661 187.27 17.3285C187.378 17.4917 187.434 17.5964 187.434 17.5964Z" fill="white" style="fill:white;fill-opacity:1;"/>
<path fill-rule="evenodd" clip-rule="evenodd" d="M184.404 13.5917C184.404 13.5917 184.774 13.2961 185.15 12.7972C185.338 12.5473 185.526 12.2457 185.666 11.8998C185.736 11.727 185.794 11.5426 185.833 11.3494C185.868 11.1586 185.885 10.9584 185.876 10.7498C185.857 10.335 185.748 9.91684 185.572 9.54648C185.395 9.17723 185.17 8.83906 184.948 8.55386C184.488 8.00121 184.049 7.66422 184.049 7.66422C184.049 7.66422 183.734 8.0175 183.449 8.57767C183.162 9.13713 182.901 9.90024 182.974 10.6922C183.003 11.0981 183.109 11.4761 183.254 11.8146C183.329 11.9817 183.408 12.1449 183.487 12.3007C183.569 12.4548 183.655 12.5977 183.74 12.728C183.826 12.8583 183.912 12.9758 183.992 13.0791C184.068 13.1864 184.139 13.2792 184.2 13.3552C184.321 13.507 184.404 13.5917 184.404 13.5917Z" fill="white" style="fill:white;fill-opacity:1;"/>
<path fill-rule="evenodd" clip-rule="evenodd" d="M178.12 9.51241C177.223 8.88447 176.66 7.96076 176.43 6.74131C177.655 6.53994 178.716 6.75324 179.612 7.38118C180.509 8.00912 181.072 8.93283 181.302 10.1523C180.077 10.3536 179.017 10.1404 178.12 9.51241Z" fill="white" style="fill:white;fill-opacity:1;"/>
<path fill-rule="evenodd" clip-rule="evenodd" d="M184.506 13.5018C184.506 13.5018 184.163 13.8286 183.629 14.15C183.363 14.3109 183.049 14.4717 182.712 14.5945C182.543 14.656 182.368 14.7074 182.189 14.7459C182.008 14.7871 181.822 14.8146 181.636 14.8235C181.261 14.8438 180.927 14.7788 180.615 14.6913C180.302 14.6054 180.028 14.4791 179.801 14.3474C179.33 14.1037 179.043 13.8345 179.043 13.8345C179.043 13.8345 179.326 13.4544 179.792 13.0472C180.26 12.6407 180.916 12.2102 181.696 12.1373C182.078 12.1105 182.45 12.1787 182.795 12.2954C182.969 12.3516 183.131 12.4259 183.279 12.5099C183.429 12.5923 183.569 12.6808 183.698 12.7697C183.826 12.8583 183.942 12.9475 184.044 13.0309C184.142 13.1183 184.226 13.2002 184.294 13.2699C184.431 13.4097 184.506 13.5018 184.506 13.5018Z" fill="white" style="fill:white;fill-opacity:1;"/>
<path d="M170.237 54.1223L166.954 54.987" stroke="white" style="stroke:white;stroke-opacity:1;" stroke-width="0.944524" stroke-linecap="round" stroke-linejoin="round"/>
<path d="M47.3194 29.1429L50.6933 19.7075H52.5896L55.9635 29.1429H54.1915L53.3938 26.7039H49.8825L49.0848 29.1429H47.3194ZM51.6218 21.388L50.3076 25.4027H52.9688L51.6611 21.388H51.6218ZM57.0748 31.4314V22.2118H58.703V23.4084H58.7357C59.1345 22.578 59.893 22.068 60.8869 22.068C62.6458 22.068 63.7574 23.4411 63.7574 25.6773V25.6839C63.7574 27.907 62.6458 29.2802 60.9065 29.2802C59.9192 29.2802 59.128 28.7832 58.7357 27.9724H58.703V31.4314H57.0748ZM60.403 27.907C61.4427 27.907 62.0966 27.0505 62.0966 25.6839V25.6773C62.0966 24.2911 61.4427 23.4411 60.403 23.4411C59.3961 23.4411 58.6899 24.3173 58.6899 25.6773V25.6839C58.6899 27.0374 59.3961 27.907 60.403 27.907ZM65.0714 31.4314V22.2118H66.6995V23.4084H66.7322C67.1311 22.578 67.8896 22.068 68.8835 22.068C70.6424 22.068 71.754 23.4411 71.754 25.6773V25.6839C71.754 27.907 70.6424 29.2802 68.9031 29.2802C67.9157 29.2802 67.1246 28.7832 66.7322 27.9724H66.6995V31.4314H65.0714ZM68.3996 27.907C69.4393 27.907 70.0931 27.0505 70.0931 25.6839V25.6773C70.0931 24.2911 69.4393 23.4411 68.3996 23.4411C67.3927 23.4411 66.6865 24.3173 66.6865 25.6773V25.6839C66.6865 27.0374 67.3927 27.907 68.3996 27.907ZM73.1138 29.1429V19.7075H74.7419V29.1429H73.1138ZM79.443 29.2802C77.3636 29.2802 76.1082 27.9005 76.1082 25.697V25.6904C76.1082 23.5065 77.3833 22.068 79.3645 22.068C81.3457 22.068 82.575 23.4607 82.575 25.5531V26.0762H77.7233C77.7494 27.2924 78.4164 28.0117 79.4756 28.0117C80.2864 28.0117 80.8161 27.5801 80.973 27.1159L80.9861 27.0701H82.5096L82.49 27.142C82.2742 28.2078 81.2542 29.2802 79.443 29.2802ZM79.3841 23.343C78.521 23.343 77.8737 23.925 77.7429 24.9908H80.9926C80.8749 23.8923 80.2472 23.343 79.3841 23.343ZM87.0077 29.1429V19.7075H90.4536C93.2652 19.7075 94.9391 21.4076 94.9391 24.3892V24.4023C94.9391 27.3905 93.2783 29.1429 90.4536 29.1429H87.0077ZM88.6947 27.7174H90.2771C92.1733 27.7174 93.2195 26.5601 93.2195 24.4088V24.3958C93.2195 22.2903 92.1537 21.1329 90.2771 21.1329H88.6947V27.7174ZM99.431 29.2802C97.3517 29.2802 96.0962 27.9005 96.0962 25.697V25.6904C96.0962 23.5065 97.3713 22.068 99.3525 22.068C101.334 22.068 102.563 23.4607 102.563 25.5531V26.0762H97.7113C97.7374 27.2924 98.4044 28.0117 99.4637 28.0117C100.274 28.0117 100.804 27.5801 100.961 27.1159L100.974 27.0701H102.498L102.478 27.142C102.262 28.2078 101.242 29.2802 99.431 29.2802ZM99.3721 23.343C98.509 23.343 97.8617 23.925 97.7309 24.9908H100.981C100.863 23.8923 100.235 23.343 99.3721 23.343ZM106.591 29.2802C104.773 29.2802 103.733 28.4171 103.589 27.1289L103.583 27.0701H105.185L105.198 27.1289C105.322 27.724 105.773 28.077 106.597 28.077C107.388 28.077 107.866 27.7566 107.866 27.2466V27.2401C107.866 26.8216 107.624 26.5862 106.904 26.4228L105.754 26.1677C104.426 25.8735 103.759 25.2262 103.759 24.1996V24.1931C103.759 22.9245 104.864 22.068 106.538 22.068C108.264 22.068 109.271 23.0161 109.33 24.2127L109.337 24.2846H107.82L107.813 24.2323C107.741 23.6765 107.297 23.2711 106.538 23.2711C105.819 23.2711 105.368 23.6046 105.368 24.1146V24.1211C105.368 24.52 105.636 24.7815 106.355 24.945L107.513 25.2C108.945 25.5204 109.5 26.0827 109.5 27.0897V27.0962C109.5 28.404 108.291 29.2802 106.591 29.2802ZM111.671 21.2179C111.161 21.2179 110.762 20.8125 110.762 20.3287C110.762 19.8317 111.161 19.4329 111.671 19.4329C112.181 19.4329 112.573 19.8317 112.573 20.3287C112.573 20.8125 112.181 21.2179 111.671 21.2179ZM110.854 29.1429V22.2118H112.482V29.1429H110.854ZM117.261 31.5687C115.424 31.5687 114.266 30.7318 114.07 29.6463L114.057 29.5875H115.659L115.679 29.6398C115.855 30.0387 116.411 30.3394 117.261 30.3394C118.32 30.3394 118.902 29.7771 118.902 28.8944V27.894H118.87C118.484 28.6328 117.699 29.1036 116.705 29.1036C114.966 29.1036 113.848 27.7697 113.848 25.612V25.6054C113.848 23.415 114.979 22.068 116.732 22.068C117.712 22.068 118.471 22.5911 118.863 23.3888H118.902V22.2118H120.531V28.9467C120.531 30.516 119.269 31.5687 117.261 31.5687ZM117.215 27.8482C118.229 27.8482 118.909 26.9916 118.909 25.6446V25.6381C118.909 24.2977 118.222 23.4411 117.215 23.4411C116.169 23.4411 115.509 24.2846 115.509 25.6316V25.6381C115.509 27.0047 116.169 27.8482 117.215 27.8482ZM122.132 29.1429V22.2118H123.76V23.2973H123.793C124.153 22.5518 124.859 22.068 125.912 22.068C127.435 22.068 128.305 23.0488 128.305 24.6573V29.1429H126.677V24.9842C126.677 23.9969 126.219 23.4411 125.29 23.4411C124.355 23.4411 123.76 24.1211 123.76 25.1216V29.1429H122.132ZM132.339 29.1429L135.713 19.7075H137.609L140.983 29.1429H139.211L138.413 26.7039H134.902L134.104 29.1429H132.339ZM136.641 21.388L135.327 25.4027H137.988L136.68 21.388H136.641ZM142.898 29.1429L141.022 22.2118H142.656L143.827 27.5343H143.86L145.213 22.2118H146.776L148.129 27.5343H148.169L149.339 22.2118H150.948L149.071 29.1429H147.358L145.991 24.0754H145.959L144.598 29.1429H142.898ZM153.877 29.2605C152.49 29.2605 151.555 28.404 151.555 27.1682V27.1551C151.555 25.9258 152.51 25.1869 154.19 25.0823L156.002 24.9712V24.4938C156.002 23.7942 155.544 23.3692 154.72 23.3692C153.949 23.3692 153.478 23.7288 153.373 24.2388L153.36 24.2977H151.85L151.856 24.2192C151.954 22.9899 153.02 22.068 154.779 22.068C156.512 22.068 157.63 22.9834 157.63 24.3761V29.1429H156.002V28.077H155.962C155.564 28.8028 154.792 29.2605 153.877 29.2605ZM153.177 27.1028C153.177 27.6716 153.648 28.0182 154.36 28.0182C155.296 28.0182 156.002 27.397 156.002 26.5731V26.05L154.419 26.1481C153.615 26.2004 153.177 26.547 153.177 27.0962V27.1028ZM159.212 29.1429V22.2118H160.84V23.4084H160.873C161.089 22.5715 161.664 22.068 162.462 22.068C162.664 22.068 162.854 22.1007 162.978 22.1334V23.6046C162.841 23.5523 162.592 23.513 162.318 23.513C161.396 23.513 160.84 24.095 160.84 25.1216V29.1429H159.212ZM166.398 29.2802C164.645 29.2802 163.534 27.907 163.534 25.6773V25.6708C163.534 23.4346 164.652 22.068 166.391 22.068C167.372 22.068 168.163 22.5715 168.555 23.4019H168.595V19.7075H170.223V29.1429H168.595V27.9659H168.555C168.163 28.7832 167.398 29.2802 166.398 29.2802ZM166.888 27.907C167.895 27.907 168.595 27.0374 168.595 25.6773V25.6708C168.595 24.3173 167.889 23.4411 166.888 23.4411C165.848 23.4411 165.195 24.2911 165.195 25.6708V25.6773C165.195 27.057 165.842 27.907 166.888 27.907Z" fill="white" style="fill:white;fill-opacity:1;"/>
<path d="M38.3688 17.6662C37.9127 18.2188 37.1407 18.6311 36.5266 18.6311C36.4565 18.6311 36.3863 18.6223 36.3424 18.6136C36.3336 18.5785 36.3161 18.4732 36.3161 18.3679C36.3161 17.6662 36.6758 16.9644 37.0617 16.5258C37.553 15.9468 38.3776 15.5169 39.0618 15.4906C39.0794 15.5696 39.0882 15.6661 39.0882 15.7626C39.0882 16.4644 38.7899 17.1574 38.3688 17.6662ZM38.8513 18.7802C39.2373 18.7802 40.6321 18.8153 41.5444 20.1312C41.4655 20.1926 40.0794 20.9733 40.0794 22.719C40.0794 24.7367 41.8427 25.456 41.8953 25.4735C41.8865 25.5174 41.6146 26.4473 40.9654 27.4034C40.3865 28.2368 39.7724 29.079 38.8513 29.079C37.9214 29.079 37.6846 28.5351 36.6231 28.5351C35.5792 28.5351 35.2108 29.0965 34.3686 29.0965C33.5177 29.0965 32.93 28.3158 32.2545 27.3683C31.465 26.2455 30.8334 24.5086 30.8334 22.8594C30.8334 20.2189 32.5528 18.8153 34.2458 18.8153C35.1406 18.8153 35.8863 19.4031 36.4565 19.4031C36.9916 19.4031 37.8249 18.7802 38.8513 18.7802Z" fill="white" style="fill:white;fill-opacity:1;"/>
<path d="M78.1518 36.9475H79.3972L81.5532 44.8216H81.58L83.91 36.9475H85.1688L87.4855 44.8216H87.5123L89.7084 36.9475H90.8869L88.1015 46.4286H86.8829L84.5394 38.3938H84.5126L82.1558 46.4286H80.9238L78.1518 36.9475ZM92.3183 40.1615H93.3628V46.4286H92.3183V40.1615ZM92.0772 37.7109C92.0772 37.5055 92.1487 37.327 92.2915 37.1752C92.4433 37.0234 92.6263 36.9475 92.8405 36.9475C93.0548 36.9475 93.2333 37.0234 93.3762 37.1752C93.528 37.327 93.6038 37.5055 93.6038 37.7109C93.6038 37.934 93.5324 38.1171 93.3896 38.2599C93.2467 38.4027 93.0637 38.4742 92.8405 38.4742C92.6173 38.4742 92.4343 38.4027 92.2915 38.2599C92.1487 38.1171 92.0772 37.934 92.0772 37.7109ZM95.7094 41.6479C95.7094 41.3622 95.7005 41.0944 95.6826 40.8444C95.6648 40.5944 95.6558 40.3668 95.6558 40.1615H96.6468C96.6468 40.3311 96.6513 40.5007 96.6602 40.6703C96.6691 40.8399 96.6736 41.014 96.6736 41.1926H96.7004C96.7718 41.0408 96.87 40.8935 96.995 40.7507C97.1289 40.6078 97.2851 40.4828 97.4637 40.3757C97.6422 40.2597 97.8431 40.1704 98.0663 40.1079C98.2894 40.0365 98.5305 40.0008 98.7894 40.0008C99.2001 40.0008 99.5527 40.0632 99.8473 40.1882C100.151 40.3132 100.401 40.4873 100.597 40.7105C100.794 40.9337 100.936 41.206 101.026 41.5274C101.124 41.8398 101.173 42.1835 101.173 42.5585V46.4286H100.129V42.6656C100.129 42.1389 100.012 41.7238 99.7803 41.4202C99.5482 41.1167 99.1867 40.9649 98.6957 40.9649C98.3564 40.9649 98.0618 41.023 97.8118 41.139C97.5708 41.2551 97.3699 41.4202 97.2092 41.6345C97.0575 41.8487 96.9414 42.1032 96.861 42.3978C96.7896 42.6924 96.7539 43.0183 96.7539 43.3754V46.4286H95.7094V41.6479ZM103.418 41.6479C103.418 41.3622 103.409 41.0944 103.391 40.8444C103.374 40.5944 103.365 40.3668 103.365 40.1615H104.356C104.356 40.3311 104.36 40.5007 104.369 40.6703C104.378 40.8399 104.382 41.014 104.382 41.1926H104.409C104.481 41.0408 104.579 40.8935 104.704 40.7507C104.838 40.6078 104.994 40.4828 105.173 40.3757C105.351 40.2597 105.552 40.1704 105.775 40.1079C105.998 40.0365 106.239 40.0008 106.498 40.0008C106.909 40.0008 107.262 40.0632 107.556 40.1882C107.86 40.3132 108.11 40.4873 108.306 40.7105C108.502 40.9337 108.645 41.206 108.735 41.5274C108.833 41.8398 108.882 42.1835 108.882 42.5585V46.4286H107.837V42.6656C107.837 42.1389 107.721 41.7238 107.489 41.4202C107.257 41.1167 106.896 40.9649 106.405 40.9649C106.065 40.9649 105.771 41.023 105.521 41.139C105.28 41.2551 105.079 41.4202 104.918 41.6345C104.766 41.8487 104.65 42.1032 104.57 42.3978C104.498 42.6924 104.463 43.0183 104.463 43.3754V46.4286H103.418V41.6479ZM116.725 45.2903C116.35 45.7724 115.939 46.1116 115.493 46.308C115.046 46.4955 114.529 46.5893 113.939 46.5893C113.448 46.5893 113.006 46.5044 112.614 46.3348C112.221 46.1563 111.886 45.9197 111.609 45.6251C111.341 45.3305 111.132 44.9823 110.98 44.5806C110.837 44.1788 110.766 43.7503 110.766 43.295C110.766 42.8129 110.846 42.371 111.007 41.9693C111.167 41.5586 111.39 41.2104 111.676 40.9248C111.962 40.6301 112.301 40.4025 112.694 40.2418C113.087 40.0811 113.515 40.0008 113.979 40.0008C114.417 40.0008 114.819 40.0766 115.185 40.2284C115.551 40.3712 115.863 40.5855 116.122 40.8712C116.39 41.1479 116.595 41.4916 116.738 41.9023C116.881 42.3041 116.952 42.7638 116.952 43.2816V43.6164H111.89C111.908 43.8842 111.971 44.1431 112.078 44.3931C112.194 44.6341 112.341 44.8484 112.52 45.0359C112.698 45.2144 112.908 45.3573 113.149 45.4644C113.39 45.5715 113.654 45.6251 113.939 45.6251C114.395 45.6251 114.778 45.5447 115.091 45.384C115.403 45.2233 115.685 44.9868 115.935 44.6743L116.725 45.2903ZM115.827 42.7326C115.81 42.1969 115.636 41.7684 115.305 41.447C114.975 41.1256 114.52 40.9649 113.939 40.9649C113.359 40.9649 112.89 41.1256 112.533 41.447C112.176 41.7684 111.962 42.1969 111.89 42.7326H115.827ZM118.836 41.6479C118.836 41.3622 118.827 41.0944 118.809 40.8444C118.791 40.5944 118.782 40.3668 118.782 40.1615H119.773C119.773 40.3311 119.778 40.5007 119.787 40.6703C119.796 40.8399 119.8 41.014 119.8 41.1926H119.827C119.898 41.0408 119.997 40.8935 120.122 40.7507C120.255 40.6078 120.412 40.4828 120.59 40.3757C120.769 40.2597 120.97 40.1704 121.193 40.1079C121.416 40.0365 121.657 40.0008 121.916 40.0008C121.987 40.0008 122.059 40.0052 122.13 40.0141C122.202 40.0231 122.273 40.0409 122.345 40.0677L122.278 41.1256C122.099 41.0721 121.912 41.0453 121.715 41.0453C121.072 41.0453 120.604 41.2551 120.309 41.6747C120.023 42.0853 119.881 42.6522 119.881 43.3754V46.4286H118.836V41.6479Z" fill="white" style="fill:white;fill-opacity:1;"/>
</svg>
